<svg x="0" y="0" width="1000" height="500" viewBox="0 0 1750 875" xmlns="http://www.w3.org/2000/svg" xmlns:xlink="http://www.w3.org/1999/xlink" xmlns:fi="http://pattern.flaticon.com/"><rect x="0px" y="0px" width="100%" height="100%" opacity="1" fill="#91b3e3"/><defs><g transform="matrix(0.039063721895217896 0 0 0.039063721895217896 77.5 340)" id="L1_416"><path d="M138.621,457.079 0,402.956 0,234.577 138.621,288.708z" fill="#f6bb42"/><path d="M138.621,457.079 277.258,402.956 277.258,234.577 138.621,288.708z" fill="#edab35"/><path d="M138.621,180.447 0,234.577 138.621,288.708 277.242,234.577z" fill="#ffce54"/><g><path d="M146.167,225.611c4.156,4.164,4.156,10.921,0,15.085c-4.171,4.164-10.921,4.164-15.078,0   c-4.171-4.164-4.171-10.921,0-15.085C135.246,221.447,141.996,221.447,146.167,225.611z" fill="#434a54"/><path d="M227.055,300.552c-4.156,4.188-4.156,10.938,0,15.094c4.172,4.156,10.921,4.156,15.078,0   c4.172-4.156,4.172-10.906,0-15.094C237.977,296.395,231.227,296.395,227.055,300.552z" fill="#434a54"/><path d="M50.186,300.552c4.171,4.188,4.171,10.938,0,15.094c-4.156,4.156-10.906,4.156-15.078,0   c-4.156-4.156-4.156-10.906,0-15.094C39.28,296.395,46.03,296.395,50.186,300.552z" fill="#434a54"/><path d="M103.513,374.893c4.156,4.188,4.156,10.938,0,15.094c-4.172,4.156-10.921,4.156-15.078,0   c-4.172-4.156-4.172-10.906,0-15.094C92.591,370.737,99.341,370.737,103.513,374.893z" fill="#434a54"/><path d="M173.745,375.206c-4.172,4.156-4.172,10.906,0,15.094c4.156,4.156,10.906,4.156,15.078,0   c4.156-4.188,4.156-10.938,0-15.094C184.651,371.05,177.901,371.05,173.745,375.206z" fill="#434a54"/><path d="M200.4,337.895c-4.172,4.156-4.172,10.904,0,15.061c4.156,4.188,10.906,4.188,15.078,0   c4.172-4.156,4.172-10.904,0-15.061C211.306,333.708,204.556,333.708,200.4,337.895z" fill="#434a54"/></g><path d="M406.408,314.223 257.695,319.833 190.588,165.402 339.303,159.799z" fill="#f6bb42"/><path d="M406.408,314.223 511.984,209.322 444.877,54.904 339.303,159.799z" fill="#edab35"/><path d="M296.146,60.505 190.588,165.402 339.303,159.799 444.877,54.904z" fill="#ffce54"/><g><path d="M321.584,98.231c5.453,2.188,8.109,8.398,5.922,13.867c-2.188,5.46-8.391,8.117-13.859,5.929   c-5.469-2.195-8.125-8.398-5.938-13.866C309.896,98.692,316.115,96.035,321.584,98.231z" fill="#434a54"/><path d="M262.695,204.611c5.469,2.188,8.125,8.398,5.938,13.859c-2.188,5.469-8.391,8.125-13.859,5.938   c-5.468-2.195-8.125-8.398-5.937-13.867C251.023,205.072,257.242,202.415,262.695,204.611z" fill="#434a54"/><path d="M345.269,262.069c5.469,2.188,8.125,8.398,5.938,13.859c-2.188,5.469-8.406,8.125-13.857,5.938   c-5.469-2.188-8.125-8.406-5.938-13.867C333.599,262.53,339.803,259.874,345.269,262.069z" fill="#434a54"/><path d="M320.115,203.243c5.469,2.187,8.125,8.398,5.922,13.867c-2.188,5.461-8.391,8.117-13.859,5.93   s-8.125-8.398-5.938-13.867C308.428,203.704,314.646,201.049,320.115,203.243z" fill="#434a54"/><path d="M287.865,263.429c5.469,2.195,8.125,8.398,5.938,13.875c-2.188,5.469-8.406,8.125-13.873,5.938   c-5.469-2.203-8.125-8.406-5.922-13.883C276.195,263.897,282.396,261.241,287.865,263.429z" fill="#434a54"/><path d="M425.314,135.042c-2.203,5.46,0.453,11.671,5.922,13.866c5.469,2.188,11.688-0.469,13.875-5.937   c2.188-5.461-0.469-11.671-5.938-13.867C433.705,126.917,427.502,129.574,425.314,135.042z" fill="#434a54"/><path d="M450.471,193.861c-2.188,5.468,0.469,11.679,5.938,13.866c5.469,2.195,11.67-0.461,13.857-5.929   c2.203-5.468-0.453-11.671-5.922-13.867C458.877,185.743,452.674,188.4,450.471,193.861z" fill="#434a54"/><path d="M384.676,175.618c-2.188,5.469,0.469,11.672,5.938,13.867c5.469,2.188,11.67-0.469,13.857-5.93   c2.188-5.469-0.469-11.679-5.92-13.867C393.082,167.495,386.863,170.15,384.676,175.618z" fill="#434a54"/><path d="M409.846,234.445c-2.188,5.469,0.469,11.672,5.922,13.867c5.469,2.188,11.688-0.469,13.875-5.938   s-0.469-11.671-5.938-13.859C418.236,226.322,412.033,228.977,409.846,234.445z" fill="#434a54"/><path d="M417.58,184.751c-2.188,5.469,0.469,11.68,5.938,13.867c5.469,2.195,11.672-0.461,13.859-5.929   c2.188-5.469-0.469-11.68-5.922-13.867C425.986,176.635,419.767,179.29,417.58,184.751z" fill="#434a54"/></g></g><g transform="matrix(0.16979165375232697 0.04549553617835045 -0.04549553617835045 0.16979165375232697 -31.819372177124023 -55.113460540771484)" id="L1_417"><path d="M59.733,179.574c-14.358,0-25.6,14.992-25.6,34.133c0,19.142,11.242,34.133,25.6,34.133s25.6-14.992,25.6-34.133     C85.333,194.566,74.092,179.574,59.733,179.574z M59.733,230.774c-3.483,0-8.533-6.65-8.533-17.067     c0-10.417,5.05-17.067,8.533-17.067s8.533,6.65,8.533,17.067C68.267,224.124,63.217,230.774,59.733,230.774z"/><path d="M136.533,230.774c-14.358,0-25.6,14.992-25.6,34.133c0,19.142,11.242,34.133,25.6,34.133s25.6-14.992,25.6-34.133     C162.133,245.766,150.892,230.774,136.533,230.774z M136.533,281.974c-3.483,0-8.533-6.65-8.533-17.067     c0-10.417,5.05-17.067,8.533-17.067c3.483,0,8.533,6.65,8.533,17.067C145.067,275.324,140.017,281.974,136.533,281.974z"/><path d="M136.533,324.641c-14.358,0-25.6,14.992-25.6,34.133s11.242,34.133,25.6,34.133s25.6-14.992,25.6-34.133     S150.892,324.641,136.533,324.641z M136.533,375.841c-3.483,0-8.533-6.65-8.533-17.067s5.05-17.067,8.533-17.067     c3.483,0,8.533,6.65,8.533,17.067S140.017,375.841,136.533,375.841z"/><path d="M59.733,273.441c-14.358,0-25.6,14.992-25.6,34.133s11.242,34.133,25.6,34.133s25.6-14.992,25.6-34.133     S74.092,273.441,59.733,273.441z M59.733,324.641c-3.483,0-8.533-6.65-8.533-17.067c0-10.417,5.05-17.067,8.533-17.067     s8.533,6.65,8.533,17.067C68.267,317.991,63.217,324.641,59.733,324.641z"/><path d="M315.733,188.107c-14.358,0-25.6,14.992-25.6,34.133c0,19.142,11.242,34.133,25.6,34.133     c14.358,0,25.6-14.992,25.6-34.133C341.333,203.099,330.092,188.107,315.733,188.107z M315.733,239.307     c-3.483,0-8.533-6.65-8.533-17.067s5.05-17.067,8.533-17.067c3.483,0,8.533,6.65,8.533,17.067S319.217,239.307,315.733,239.307z"/><path d="M238.933,316.107c-14.358,0-25.6,14.992-25.6,34.133s11.242,34.133,25.6,34.133s25.6-14.992,25.6-34.133     S253.292,316.107,238.933,316.107z M238.933,367.307c-3.483,0-8.533-6.65-8.533-17.067c0-10.417,5.05-17.067,8.533-17.067     s8.533,6.65,8.533,17.067C247.467,360.657,242.417,367.307,238.933,367.307z"/><path d="M221.867,119.841c0-14.354-14.992-25.6-34.133-25.6c-19.142,0-34.133,11.246-34.133,25.6s14.992,25.6,34.133,25.6     C206.875,145.44,221.867,134.195,221.867,119.841z M187.733,128.374c-10.417,0-17.067-5.054-17.067-8.533     s6.65-8.533,17.067-8.533s17.067,5.054,17.067,8.533S198.15,128.374,187.733,128.374z"/><path d="M508.708,161.983c-0.079-0.168-0.191-0.314-0.273-0.479l-0.035-0.109l-0.074-0.084     c-2.985-6.017-7.686-11.015-13.509-14.362L341.242,59.153c-10.507-6.029-23.422-6.034-33.933-0.012l-14.693,8.406L204.667,17.29     c-10.498-5.975-23.368-5.975-33.867,0L17.2,105.061c-5.811,3.351-10.504,8.341-13.492,14.346     c-0.029,0.049-0.079,0.075-0.108,0.125c-0.052,0.091-0.046,0.193-0.094,0.285c-2.283,4.629-3.482,9.716-3.506,14.877v200.688     c0.017,12.245,6.576,23.548,17.2,29.637l153.6,87.771c5.027,2.859,10.699,4.39,16.481,4.451c0.158,0.009,0.292,0.091,0.452,0.091     c0.161,0,0.295-0.083,0.453-0.092c5.782-0.062,11.453-1.594,16.48-4.45l14.754-8.431l87.929,50.315     c10.486,6.03,23.388,6.022,33.867-0.021l153.591-87.804c10.622-6.072,17.181-17.365,17.192-29.6V176.545     C512.013,171.505,510.888,166.527,508.708,161.983z M315.808,73.945c5.247-3.013,11.7-3.008,16.942,0.013l153.583,87.8     c0.617,0.428,1.204,0.896,1.758,1.402l-112.625,64.305v-38.925c5.397,2.294,11.203,3.468,17.067,3.452     c19.142,0,34.133-11.246,34.133-25.6c0-14.354-14.992-25.6-34.133-25.6c-5.864-0.016-11.67,1.158-17.067,3.452v-9.548     c-0.024-5.161-1.223-10.249-3.506-14.878c-0.048-0.092-0.042-0.194-0.094-0.285c-0.029-0.05-0.079-0.076-0.108-0.125     c-2.988-6.005-7.681-10.995-13.491-14.346l-48.452-27.686L315.808,73.945z M375.467,166.391c0-3.479,6.65-8.533,17.067-8.533     c10.417,0,17.067,5.054,17.067,8.533c0,3.479-6.65,8.533-17.067,8.533C382.117,174.924,375.467,169.87,375.467,166.391z      M179.2,437.936L25.667,350.203c-5.313-3.045-8.593-8.697-8.6-14.821V137.051l153.567,87.706c2.7,1.489,5.579,2.626,8.567,3.384     V437.936z M179,209.882L23.844,121.27c0.575-0.505,1.184-0.97,1.823-1.392l153.6-87.771c5.249-2.989,11.685-2.989,16.933,0     l153.6,87.771c0.639,0.422,1.248,0.887,1.823,1.392l-155.056,88.554C191.097,212.809,184.49,212.831,179,209.882z      M315.733,479.803l-79.113-45.272l79.113-45.207V479.803z M196.267,437.936V228.137c3.023-0.773,5.936-1.928,8.667-3.438     L358.4,137.051v198.331c-0.007,6.124-3.287,11.776-8.6,14.821L196.267,437.936z M494.933,377.249     c-0.005,6.109-3.28,11.747-8.583,14.779L332.8,479.806V379.572l25.467-14.552c10.624-6.089,17.183-17.392,17.2-29.638v-88.259     l119.467-68.21V377.249z"/><path d="M418.133,362.657c14.358,0,25.6-14.992,25.6-34.133c0-19.142-11.242-34.133-25.6-34.133     c-14.358,0-25.6,14.992-25.6,34.133C392.533,347.666,403.775,362.657,418.133,362.657z M418.133,311.457     c3.483,0,8.533,6.65,8.533,17.067s-5.05,17.067-8.533,17.067c-3.483,0-8.533-6.65-8.533-17.067S414.65,311.457,418.133,311.457z"/></g><g transform="matrix(0.078125 0 0 0.078125 242.5 67.5)" id="L1_418"><path d="M251.259,180.148 4.741,85.333 4.741,407.704 251.259,512z" fill="#e6eef4"/><path d="M507.259,94.815 250.785,180.148 251.259,512 507.259,417.185z" fill="#dae1e5"/><path d="M507.259,94.815 251.259,180.148 4.741,85.333 251.259,0z" fill="#ecfaff"/><g><path d="M476.787,174.394c0,12.535-8.04,22.689-17.948,22.689c-9.918,0-17.948-10.155-17.948-22.689    c0-12.535,8.031-22.689,17.948-22.689C468.746,151.705,476.787,161.859,476.787,174.394"/><path d="M402.963,288.172c0,12.534-8.04,22.689-17.948,22.689c-9.918,0-17.948-10.155-17.948-22.689    c0-12.535,8.031-22.689,17.948-22.689C394.923,265.482,402.963,275.637,402.963,288.172"/><path d="M334.564,413.458c0,12.535-8.04,22.689-17.948,22.689c-9.918,0-17.948-10.155-17.948-22.689    c0-12.535,8.031-22.689,17.948-22.689C326.524,390.769,334.564,400.923,334.564,413.458"/><path d="M206.747,222.296c0,12.535-8.04,22.689-17.948,22.689c-9.918,0-17.948-10.155-17.948-22.689    c0-12.535,8.031-22.689,17.948-22.689C198.706,199.607,206.747,209.762,206.747,222.296"/><path d="M70.293,165.468c0,12.535-8.04,22.689-17.948,22.689c-9.918,0-17.948-10.155-17.948-22.689    c0-12.535,8.031-22.689,17.948-22.689C62.253,142.779,70.293,152.933,70.293,165.468"/><path d="M203.852,420.912c0,12.535-8.04,22.689-17.948,22.689c-9.918,0-17.948-10.155-17.948-22.689s8.031-22.689,17.948-22.689    C195.812,398.223,203.852,408.378,203.852,420.912"/><path d="M69.656,366.051c0,12.535-8.04,22.689-17.948,22.689c-9.918,0-17.948-10.155-17.948-22.689    c0-12.535,8.031-22.689,17.948-22.689C61.615,343.361,69.656,353.516,69.656,366.051"/><path d="M251.328,70.738c12.535,0,22.689,8.04,22.689,17.948c0,9.918-10.155,17.948-22.689,17.948    c-12.535,0-22.689-8.031-22.689-17.948C228.639,78.778,238.794,70.738,251.328,70.738"/></g></g><g transform="matrix(0.078125 0 0 0.078125 155 330)" id="L1_419"><path d="m512 256c0 51.28125-15.089844 99.035156-41.058594 139.078125-5.601562 8.640625-19.003906 4.707031-19.003906-5.589844v-298.222656c37.472656 44.523437 60.0625 101.988281 60.0625 164.734375zm-395.578125-214.617188c-8.480469 5.527344-4.625 18.679688 5.492187 18.679688h298.820313c-44.523437-37.472656-101.988281-60.0625-164.734375-60.0625-51.496094 0-99.433594 15.214844-139.578125 41.382812zm0 0" fill="#013f69"/><path d="m471 51v344c-6.359375 9.820312-13.390625 19.199219-21 28.027344-46.945312 54.492187-116.433594 88.972656-194 88.972656-141.386719 0-256-114.613281-256-256 0-90.140625 46.59375-169.386719 117.003906-215h343.996094c5.523438 0 10 4.476562 10 10zm0 0" fill="#fdf061"/><path d="m431.105469 442.726562c-6.519531 6.113282-13.34375 11.886719-20.472657 17.300782-9.769531 7.421875-20.101562 14.15625-30.898437 20.128906-2.429687-22.539062-21.5625-40.15625-44.734375-40.15625h-170c-57.898438 0-105-47.101562-105-105s47.101562-105 105-105h170c24.8125 0 45-20.1875 45-45s-20.1875-45-45-45h-307.265625c11.21875-22.03125 25.535156-42.222656 42.375-60h264.890625c57.898438 0 105 47.101562 105 105s-47.101562 105-105 105h-170c-24.8125 0-45 20.1875-45 45s20.1875 45 45 45h170c42.867188 0 79.808594 25.824219 96.105469 62.726562zm0 0" fill="#e8ce00"/><path d="m335 230c1.691406 0 3.355469-.101562 5-.285156v60.164062c-1.65625.078125-3.324219.121094-5 .121094h-15v-60zm89.304688-100.160156c-3.5625-5.746094-7.660157-11.121094-12.226563-16.0625l-42.480469 42.484375c4.496094 5.398437 7.742188 11.871093 9.320313 18.960937zm-264.304688 100.28125v60.164062c1.644531-.183594 3.308594-.285156 5-.285156h15v-60h-15c-1.675781 0-3.34375.042969-5 .121094zm80 59.878906h20v-60h-20zm-164.03125-10.601562 45.246094 45.25c1.664062-7.035157 4.980468-13.433594 9.519531-18.769532l-42.46875-42.46875c-4.589844 4.914063-8.710937 10.269532-12.296875 15.988282zm0 111.203124c3.585938 5.71875 7.707031 11.074219 12.296875 15.988282l42.464844-42.46875c-4.539063-5.335938-7.851563-11.734375-9.515625-18.769532zm84.03125-10.886718v60.164062c1.65625.078125 3.324219.121094 5 .121094h15v-60h-15c-1.691406 0-3.355469-.101562-5-.285156zm80 60.285156h20v-60h-20zm0-300h20v-60h-20zm-80 0h20v-60h-20zm-60-60h-20v60h20zm307.101562 328.757812-42.445312 42.441407c5.101562 4.480469 9.179688 10.089843 11.847656 16.441406l43.785156-43.789063c-3.910156-5.445312-8.328124-10.496093-13.1875-15.09375zm-37.835937-194.636718 42.46875 42.46875c4.589844-4.914063 8.710937-10.269532 12.296875-15.988282l-45.25-45.25c-1.660156 7.035157-4.976562 13.433594-9.515625 18.769532zm-49.265625 165.878906v60h15c1.691406 0 3.355469.105469 5 .285156v-60.152344c-1.65625-.078124-3.324219-.132812-5-.132812zm0-300v60h15c1.691406 0 3.355469.101562 5 .285156v-60.164062c-1.65625-.078125-3.324219-.121094-5-.121094zm0 0" fill="#d6bf01"/><path d="m247.109375 262.15625c.40625 4.257812-2.933594 7.84375-7.109375 7.84375h-42.855469c-4.179687 0-7.515625-3.585938-7.109375-7.84375.351563-3.714844 3.683594-6.441406 7.414063-6.441406 3.777343 0 6.835937-3.0625 6.835937-6.835938v-25.589844c-8.53125-4.941406-14.285156-14.148437-14.285156-24.71875 0-16.292968 13.636719-29.398437 30.117188-28.53125 14.761718.777344 26.703124 13.125 27.019531 27.90625.230469 10.832032-5.578125 20.304688-14.277344 25.34375v25.589844c0 3.773438 3.058594 6.835938 6.835937 6.835938 3.726563 0 7.058594 2.726562 7.414063 6.441406zm0 0" fill="#fd3d96"/><path d="m217.144531 270h-20c-4.457031 0-7.960937-4.082031-6.976562-8.710938.71875-3.378906 3.878906-5.550781 7.332031-5.574218 3.753906-.027344 6.785156-3.078125 6.785156-6.835938v-25.589844c-8.53125-4.941406-14.285156-14.148437-14.285156-24.71875 0-16.292968 13.636719-29.398437 30.117188-28.53125 2.941406.15625 5.765624.777344 8.410156 1.777344-10.824219 4.066406-18.527344 14.507813-18.527344 26.753906 0 7.925782 3.238281 15.085938 8.453125 20.257813 3.824219 3.785156 5.832031 9.035156 5.832031 14.417969v15.632812c0 3.773438-3.0625 6.835938-6.835937 6.835938h-.007813c-3.667968 0-6.960937 2.632812-7.390625 6.273437-.511719 4.332031 2.859375 8.011719 7.09375 8.011719zm0 0" fill="#e31e7f"/><path d="m327.109375 122.15625c.40625 4.257812-2.933594 7.84375-7.109375 7.84375h-42.855469c-4.179687 0-7.515625-3.585938-7.109375-7.84375.351563-3.714844 3.683594-6.441406 7.414063-6.441406 3.777343 0 6.835937-3.0625 6.835937-6.835938v-25.589844c-8.53125-4.941406-14.285156-14.148437-14.285156-24.71875 0-16.292968 13.636719-29.398437 30.117188-28.53125 14.761718.777344 26.703124 13.125 27.019531 27.90625.230469 10.832032-5.578125 20.304688-14.277344 25.34375v25.589844c0 3.773438 3.058594 6.835938 6.835937 6.835938 3.726563 0 7.058594 2.726562 7.414063 6.441406zm0 0" fill="#0995a3"/><path d="m297.144531 130h-20c-4.457031 0-7.960937-4.082031-6.976562-8.710938.71875-3.378906 3.878906-5.550781 7.332031-5.574218 3.753906-.027344 6.785156-3.078125 6.785156-6.835938v-25.589844c-8.53125-4.941406-14.285156-14.148437-14.285156-24.71875 0-16.292968 13.636719-29.398437 30.117188-28.53125 2.941406.15625 5.765624.777344 8.410156 1.777344-10.824219 4.066406-18.527344 14.507813-18.527344 26.753906 0 7.925782 3.238281 15.085938 8.453125 20.257813 3.824219 3.785156 5.832031 9.035156 5.832031 14.417969v15.632812c0 3.773438-3.0625 6.835938-6.835937 6.835938h-.007813c-3.667968 0-6.960937 2.632812-7.390625 6.273437-.511719 4.332031 2.859375 8.011719 7.09375 8.011719zm0 0" fill="#00808a"/><path d="m210 370v80c0 11.046875-8.953125 20-20 20h-80c-11.046875 0-20-8.953125-20-20v-80c0-11.046875 8.953125-20 20-20h80c11.046875 0 20 8.953125 20 20zm0 0" fill="#e31e7f"/><path d="m210 370v56c0 11.046875-8.953125 20-20 20h-56c-11.046875 0-20-8.953125-20-20v-56c0-11.046875 8.953125-20 20-20h56c11.046875 0 20 8.953125 20 20zm0 0" fill="#fd3d96"/><path d="m133.636719 377.273438c0 9.035156-7.328125 16.363281-16.363281 16.363281-9.039063 0-16.367188-7.328125-16.367188-16.363281 0-9.039063 7.328125-16.363282 16.367188-16.363282 9.035156 0 16.363281 7.324219 16.363281 16.363282zm49.089843 49.089843c-9.035156 0-16.363281 7.328125-16.363281 16.363281 0 9.039063 7.324219 16.363282 16.363281 16.363282 9.039063 0 16.363282-7.324219 16.363282-16.363282 0-9.035156-7.324219-16.363281-16.363282-16.363281zm-32.726562-32.726562c-9.035156 0-16.363281 7.324219-16.363281 16.363281 0 9.035156 7.324219 16.363281 16.363281 16.363281s16.363281-7.328125 16.363281-16.363281c0-9.039062-7.328125-16.363281-16.363281-16.363281zm0 0" fill="#fff5f5"/><path d="m331.167969 460h-21.167969c-5.523438 0-10-4.476562-10-10v-195.667969c0-5.523437 4.476562-10 10-10h21.167969c5.523437 0 10 4.476563 10 10v195.667969c0 5.523438-4.476563 10-10 10zm0 0" fill="#00808a"/><path d="m450 423.027344c-11.769531 13.660156-24.949219 26.054687-39.328125 36.972656h-80.671875c-5.523438 0-10-4.476562-10-10v-195.667969c0-5.523437 4.476562-10 10-10h110c5.523438 0 10 4.476563 10 10zm0 0" fill="#0995a3"/><path d="m435 344.332031c0 33.136719-26.863281 60-60 60s-60-26.863281-60-60 26.863281-60 60-60 60 26.863281 60 60zm0 0" fill="#016a74"/><path d="m378.683594 306.625 8.859375 17.949219c.597656 1.214843 1.757812 2.054687 3.09375 2.25l19.8125 2.878906c3.367187.488281 4.714843 4.632813 2.277343 7.007813l-14.335937 13.972656c-.96875.945312-1.410156 2.304687-1.183594 3.636718l3.386719 19.730469c.574219 3.355469-2.949219 5.917969-5.960938 4.332031l-17.722656-9.316406c-1.195312-.628906-2.625-.628906-3.820312 0l-17.722656 9.316406c-3.011719 1.585938-6.535157-.976562-5.960938-4.332031l3.386719-19.730469c.226562-1.332031-.214844-2.691406-1.183594-3.636718l-14.335937-13.972656c-2.4375-2.375-1.089844-6.519532 2.277343-7.007813l19.8125-2.878906c1.335938-.195313 2.496094-1.035157 3.09375-2.25l8.859375-17.949219c1.507813-3.054688 5.859375-3.054688 7.367188 0zm0 0" fill="#fdf385"/><path d="m140 159.15625c0 33.136719-26.863281 60-60 60s-60-26.863281-60-60 26.863281-60 60-60 60 26.863281 60 60zm0 0" fill="#fd3d96"/><path d="m90 218.308594c-3.253906.546875-6.589844.847656-10 .847656-33.136719 0-60-26.863281-60-60s26.863281-60 60-60c3.410156 0 6.746094.296875 10 .84375-28.375 4.761719-50 29.425781-50 59.15625 0 29.726562 21.625 54.390625 50 59.152344zm0 0" fill="#e31e7f"/><path d="m52.347656 117.5c5.292969-3.523438 11.292969-6.0625 17.746094-7.359375 1.242188-.25 2.40625.699219 2.40625 1.964844v16.484375c0 .859375-.542969 1.640625-1.363281 1.894531-1.785157.554687-3.5 1.273437-5.128907 2.132813-.761718.402343-1.699218.238281-2.3125-.371094l-11.65625-11.65625c-.894531-.898438-.746093-2.390625.308594-3.089844zm55.304688 0c-5.292969-3.523438-11.292969-6.0625-17.746094-7.359375-1.242188-.25-2.40625.699219-2.40625 1.964844v16.484375c0 .859375.542969 1.640625 1.363281 1.894531 1.785157.554687 3.5 1.273437 5.128907 2.132813.761718.402343 1.699218.238281 2.3125-.371094l11.65625-11.660156c.894531-.894532.746093-2.386719-.308594-3.085938zm2.910156 34.15625h16.488281c1.265625 0 2.214844-1.164062 1.964844-2.40625-1.296875-6.453125-3.839844-12.453125-7.363281-17.75-.699219-1.050781-2.191406-1.199219-3.085938-.304688l-11.65625 11.65625c-.609375.609376-.777344 1.550782-.375 2.308594.863282 1.628906 1.578125 3.34375 2.132813 5.128906.253906.824219 1.035156 1.367188 1.894531 1.367188zm-57.472656-8.804688-11.65625-11.65625c-.894532-.894531-2.386719-.746093-3.089844.304688-3.519531 5.296875-6.0625 11.296875-7.359375 17.75-.25 1.242188.699219 2.40625 1.964844 2.40625h16.484375c.859375 0 1.644531-.542969 1.898437-1.363281.550781-1.789063 1.269531-3.503907 2.132813-5.128907.402344-.761718.234375-1.703124-.375-2.3125zm-.742188 57.957032c5.292969 3.523437 11.292969 6.066406 17.746094 7.363281 1.242188.25 2.40625-.699219 2.40625-1.96875v-16.484375c0-.859375-.542969-1.640625-1.363281-1.894531-1.785157-.554688-3.5-1.269531-5.128907-2.132813-.761718-.402344-1.699218-.238281-2.3125.375l-11.65625 11.65625c-.894531.894532-.746093 2.386719.308594 3.085938zm-2.914062-34.152344h-16.484375c-1.265625 0-2.214844 1.164062-1.964844 2.402344 1.296875 6.453125 3.839844 12.457031 7.359375 17.75.703125 1.054687 2.195312 1.199218 3.089844.304687l11.65625-11.65625c.609375-.609375.777344-1.546875.375-2.308593-.863282-1.628907-1.582032-3.34375-2.132813-5.128907-.253906-.824219-1.035156-1.363281-1.898437-1.363281zm57.476562 8.800781 11.65625 11.65625c.894532.894531 2.386719.75 3.089844-.304687 3.519531-5.292969 6.0625-11.296875 7.359375-17.75.25-1.242188-.699219-2.402344-1.964844-2.402344h-16.484375c-.859375 0-1.644531.539062-1.898437 1.363281-.550781 1.785157-1.269531 3.5-2.132813 5.128907-.402344.761718-.234375 1.699218.375 2.308593zm-19.410156 14.261719v16.484375c0 1.265625 1.164062 2.21875 2.40625 1.96875 6.453125-1.300781 12.453125-3.839844 17.746094-7.363281 1.054687-.699219 1.203125-2.191406.308594-3.085938l-11.65625-11.660156c-.609376-.609375-1.550782-.777344-2.3125-.371094-1.628907.859375-3.34375 1.578125-5.128907 2.128906-.820312.257813-1.363281 1.039063-1.363281 1.898438zm0 0" fill="#fd7ab5"/><path d="m81.792969 140.269531 4.3125 8.738281c.292969.589844.855469 1 1.507812 1.09375l9.644531 1.402344c1.636719.238282 2.292969 2.253906 1.105469 3.410156l-6.976562 6.804688c-.472657.457031-.6875 1.121094-.574219 1.769531l1.644531 9.605469c.28125 1.632812-1.433593 2.878906-2.902343 2.105469l-8.625-4.535157c-.582032-.304687-1.277344-.304687-1.859376 0l-8.628906 4.535157c-1.464844.773437-3.179687-.472657-2.902344-2.105469l1.648438-9.605469c.113281-.648437-.101562-1.3125-.574219-1.769531l-6.976562-6.804688c-1.1875-1.15625-.535157-3.171874 1.105469-3.410156l9.644531-1.402344c.652343-.09375 1.214843-.503906 1.507812-1.09375l4.3125-8.738281c.734375-1.488281 2.851563-1.488281 3.585938 0zm0 0" fill="#fdf385"/><path d="m140 219.15625c0 33.136719-26.863281 60-60 60s-60-26.863281-60-60 26.863281-60 60-60 60 26.863281 60 60zm0 0" fill="#0995a3"/><path d="m90 278.308594c-3.253906.546875-6.589844.847656-10 .847656-33.136719 0-60-26.863281-60-60s26.863281-60 60-60c3.410156 0 6.746094.296875 10 .84375-28.375 4.761719-50 29.425781-50 59.15625 0 29.726562 21.625 54.390625 50 59.152344zm0 0" fill="#00808a"/><path d="m72.5 172.105469v16.484375c0 .859375-.542969 1.640625-1.363281 1.894531-1.785157.554687-3.5 1.273437-5.128907 2.132813-.761718.402343-1.699218.238281-2.3125-.371094l-11.65625-11.660156c-.894531-.894532-.746093-2.386719.308594-3.085938 5.292969-3.523438 11.292969-6.0625 17.746094-7.359375 1.242188-.25 2.40625.699219 2.40625 1.964844zm16.363281 18.378906c1.785157.554687 3.5 1.273437 5.128907 2.132813.761718.402343 1.699218.238281 2.3125-.371094l11.65625-11.660156c.894531-.894532.746093-2.386719-.308594-3.085938-5.292969-3.523438-11.292969-6.0625-17.746094-7.359375-1.242188-.25-2.40625.699219-2.40625 1.964844v16.484375c0 .859375.542969 1.640625 1.363281 1.894531zm17.671875 14.675781c.863282 1.628906 1.582032 3.34375 2.132813 5.128906.253906.824219 1.039062 1.363282 1.898437 1.363282h16.484375c1.265625 0 2.214844-1.164063 1.964844-2.402344-1.296875-6.453125-3.835937-12.457031-7.359375-17.75-.703125-1.054688-2.191406-1.199219-3.089844-.304688l-11.65625 11.65625c-.609375.609376-.777344 1.546876-.375 2.308594zm-73.585937 6.496094h16.484375c.859375 0 1.644531-.542969 1.898437-1.363281.550781-1.789063 1.269531-3.503907 2.132813-5.128907.402344-.761718.234375-1.703124-.375-2.3125l-11.65625-11.65625c-.894532-.894531-2.386719-.746093-3.089844.304688-3.519531 5.296875-6.0625 11.296875-7.359375 17.75-.25 1.242188.699219 2.40625 1.964844 2.40625zm38.1875 36.167969c-1.785157-.554688-3.5-1.273438-5.128907-2.132813-.761718-.402344-1.699218-.238281-2.3125.371094l-11.65625 11.660156c-.894531.894532-.746093 2.386719.308594 3.085938 5.292969 3.523437 11.292969 6.0625 17.746094 7.363281 1.242188.25 2.40625-.703125 2.40625-1.96875v-16.484375c0-.859375-.542969-1.640625-1.363281-1.894531zm-17.671875-14.675781c-.863282-1.628907-1.582032-3.34375-2.132813-5.128907-.253906-.824219-1.039062-1.363281-1.898437-1.363281h-16.484375c-1.265625 0-2.214844 1.164062-1.964844 2.402344 1.296875 6.453125 3.839844 12.457031 7.359375 17.75.703125 1.054687 2.195312 1.199218 3.089844.304687l11.65625-11.65625c.609375-.609375.777344-1.546875.375-2.308593zm73.585937-6.492188h-16.484375c-.859375 0-1.644531.539062-1.898437 1.363281-.550781 1.785157-1.269531 3.5-2.132813 5.128907-.402344.761718-.234375 1.699218.375 2.308593l11.65625 11.65625c.894532.894531 2.386719.75 3.089844-.304687 3.519531-5.292969 6.0625-11.296875 7.359375-17.75.25-1.242188-.699219-2.402344-1.964844-2.402344zm-30.746093 19.40625c-.609376-.609375-1.550782-.773438-2.3125-.371094-1.628907.859375-3.34375 1.578125-5.128907 2.132813-.820312.253906-1.363281 1.035156-1.363281 1.894531v16.484375c0 1.269531 1.164062 2.21875 2.40625 1.96875 6.453125-1.300781 12.453125-3.839844 17.746094-7.363281 1.054687-.699219 1.203125-2.191406.308594-3.085938zm0 0" fill="#2abbc7"/><path d="m81.792969 200.269531 4.3125 8.738281c.292969.589844.855469 1 1.507812 1.09375l9.644531 1.402344c1.636719.238282 2.292969 2.253906 1.105469 3.410156l-6.976562 6.804688c-.472657.457031-.6875 1.121094-.574219 1.769531l1.644531 9.605469c.28125 1.632812-1.433593 2.878906-2.902343 2.105469l-8.625-4.535157c-.582032-.304687-1.277344-.304687-1.859376 0l-8.628906 4.535157c-1.464844.773437-3.179687-.472657-2.902344-2.105469l1.648438-9.605469c.113281-.648437-.101562-1.3125-.574219-1.769531l-6.976562-6.804688c-1.1875-1.15625-.535157-3.171874 1.105469-3.410156l9.644531-1.402344c.652343-.09375 1.214843-.503906 1.507812-1.09375l4.3125-8.738281c.734375-1.488281 2.851563-1.488281 3.585938 0zm0 0" fill="#fdf385"/></g><g transform="matrix(0.03906438872218132 0 0 0.03906438872218132 252.5 340)" id="L1_420"><path d="m53.480469 369.808594 128.230469 132.078125c6.171874 6.445312 14.703124 10.089843 23.625 10.089843 8.921874 0 17.453124-3.644531 23.625-10.089843l128.367187-132.09375c12.792969-13.398438 12.792969-34.484375 0-47.882813l-30.839844-31.777344h117.28125c18.851563 0 34.132813-15.28125 34.132813-34.132812v-187.734375c0-18.851563-15.28125-34.132813-34.132813-34.132813h-187.734375c-18.851562 0-34.132812 15.28125-34.132812 34.132813v116.140625c-12.992188-7.878906-29.722656-5.628906-40.175782 5.402344l-128.203124 132.058594c-12.953126 13.347656-12.972657 34.570312-.042969 47.941406zm185.488281-301.542969c0-9.425781 7.640625-17.066406 17.066406-17.066406h187.734375c9.425781 0 17.066407 7.640625 17.066407 17.066406v187.734375c0 9.425781-7.640626 17.066406-17.066407 17.066406h-187.734375c-9.425781 0-17.066406-7.640625-17.066406-17.066406zm-173.226562 265.53125 128.25-132.113281c3.003906-3.023438 7.09375-4.726563 11.359374-4.726563 4.265626 0 8.355469 1.703125 11.363282 4.726563l5.1875 5.371094v48.945312c0 18.851562 15.28125 34.132812 34.132812 34.132812h46.679688l42.359375 43.675782c6.4375 6.746094 6.4375 17.359375 0 24.105468l-128.367188 132.113282c-3.003906 3.03125-7.09375 4.738281-11.363281 4.738281-4.265625 0-8.359375-1.707031-11.363281-4.738281l-128.238281-132.121094c-6.511719-6.71875-6.511719-17.390625 0-24.109375zm0 0"/><path d="m153.988281 326.238281c10.347657-.007812 19.675781-6.242187 23.636719-15.804687 3.960938-9.558594 1.773438-20.5625-5.539062-27.886719-8.191407-8.199219-20.871094-9.875-30.90625-4.082031-10.039063 5.792968-14.933594 17.609375-11.933594 28.800781 3 11.195313 13.148437 18.980469 24.742187 18.972656zm-6.035156-31.625c3.332031-3.332031 8.734375-3.332031 12.066406 0 3.324219 3.332031 3.324219 8.726563 0 12.058594-2.140625 2.21875-5.316406 3.105469-8.296875 2.324219-2.984375-.777344-5.316406-3.109375-6.097656-6.09375-.78125-2.980469.109375-6.15625 2.328125-8.296875zm0 0"/><path d="m183.257812 365.097656c10.019532 9.859375 26.117188 9.792969 36.054688-.148437 9.9375-9.941407 10-26.039063.140625-36.058594-10.128906-9.664063-26.066406-9.664063-36.195313 0-4.804687 4.800781-7.5 11.3125-7.5 18.105469 0 6.789062 2.695313 13.300781 7.5 18.101562zm12.0625-24.132812c3.335938-3.328125 8.734376-3.328125 12.066407 0 1.605469 1.601562 2.503906 3.773437 2.503906 6.039062s-.898437 4.4375-2.503906 6.039063c-3.375 3.222656-8.6875 3.222656-12.066407 0-1.601562-1.601563-2.5-3.773438-2.5-6.039063s.898438-4.4375 2.5-6.039062zm0 0"/><path d="m230.257812 411.496094c6.46875 6.464844 15.894532 8.992187 24.730469 6.625 8.835938-2.367188 15.734375-9.269532 18.101563-18.105469 2.367187-8.832031-.15625-18.261719-6.625-24.726563-10-10-26.210938-10-36.207032 0-10 9.996094-10 26.207032 0 36.207032zm12.074219-24.132813c3.332031-3.332031 8.734375-3.332031 12.066407 0 2.441406 2.4375 3.171874 6.109375 1.851562 9.296875-1.320312 3.191406-4.433594 5.269532-7.882812 5.269532-3.453126 0-6.566407-2.078126-7.886719-5.269532-1.320313-3.1875-.589844-6.859375 1.851562-9.296875zm0 0"/><path d="m307.238281 119.464844c14.136719 0 25.597657-11.460938 25.597657-25.597656 0-14.140626-11.460938-25.601563-25.597657-25.601563-14.140625 0-25.601562 11.460937-25.601562 25.601563 0 14.136718 11.460937 25.597656 25.601562 25.597656zm0-34.132813c4.710938 0 8.53125 3.820313 8.53125 8.535157 0 4.710937-3.820312 8.53125-8.53125 8.53125-4.714843 0-8.535156-3.820313-8.535156-8.53125 0-4.714844 3.820313-8.535157 8.535156-8.535157zm0 0"/><path d="m307.238281 187.734375c14.136719 0 25.597657-11.460937 25.597657-25.601563 0-14.136718-11.460938-25.597656-25.597657-25.597656-14.140625 0-25.601562 11.460938-25.601562 25.597656 0 14.140626 11.460937 25.601563 25.601562 25.601563zm0-34.132813c4.710938 0 8.53125 3.820313 8.53125 8.53125 0 4.714844-3.820312 8.535157-8.53125 8.535157-4.714843 0-8.535156-3.820313-8.535156-8.535157 0-4.710937 3.820313-8.53125 8.535156-8.53125zm0 0"/><path d="m307.238281 256c14.136719 0 25.597657-11.460938 25.597657-25.601562 0-14.136719-11.460938-25.597657-25.597657-25.597657-14.140625 0-25.601562 11.460938-25.601562 25.597657 0 14.140624 11.460937 25.601562 25.601562 25.601562zm0-34.132812c4.710938 0 8.53125 3.820312 8.53125 8.53125 0 4.714843-3.820312 8.535156-8.53125 8.535156-4.714843 0-8.535156-3.820313-8.535156-8.535156 0-4.710938 3.820313-8.53125 8.535156-8.53125zm0 0"/><path d="m392.570312 119.464844c14.136719 0 25.601563-11.460938 25.601563-25.597656 0-14.140626-11.464844-25.601563-25.601563-25.601563-14.140624 0-25.601562 11.460937-25.601562 25.601563 0 14.136718 11.460938 25.597656 25.601562 25.597656zm0-34.132813c4.710938 0 8.53125 3.820313 8.53125 8.535157 0 4.710937-3.820312 8.53125-8.53125 8.53125-4.714843 0-8.535156-3.820313-8.535156-8.53125 0-4.714844 3.820313-8.535157 8.535156-8.535157zm0 0"/><path d="m392.570312 187.734375c14.136719 0 25.601563-11.460937 25.601563-25.601563 0-14.136718-11.464844-25.597656-25.601563-25.597656-14.140624 0-25.601562 11.460938-25.601562 25.597656 0 14.140626 11.460938 25.601563 25.601562 25.601563zm0-34.132813c4.710938 0 8.53125 3.820313 8.53125 8.53125 0 4.714844-3.820312 8.535157-8.53125 8.535157-4.714843 0-8.535156-3.820313-8.535156-8.535157 0-4.710937 3.820313-8.53125 8.535156-8.53125zm0 0"/><path d="m392.570312 256c14.136719 0 25.601563-11.460938 25.601563-25.601562 0-14.136719-11.464844-25.597657-25.601563-25.597657-14.140624 0-25.601562 11.460938-25.601562 25.597657 0 14.140624 11.460938 25.601562 25.601562 25.601562zm0-34.132812c4.710938 0 8.53125 3.820312 8.53125 8.53125 0 4.714843-3.820312 8.535156-8.53125 8.535156-4.714843 0-8.535156-3.820313-8.535156-8.535156 0-4.710938 3.820313-8.53125 8.535156-8.53125zm0 0"/><path d="m477.902344 0h-42.664063c-4.714843 0-8.535156 3.820312-8.535156 8.535156 0 4.710938 3.820313 8.53125 8.535156 8.53125h42.664063c9.425781 0 17.066406 7.640625 17.066406 17.066406v42.667969c0 4.710938 3.820312 8.53125 8.535156 8.53125 4.710938 0 8.53125-3.820312 8.53125-8.53125v-42.667969c0-18.851562-15.28125-34.132812-34.132812-34.132812zm0 0"/><path d="m401.101562 17.066406c4.714844 0 8.535157-3.820312 8.535157-8.53125 0-4.714844-3.820313-8.535156-8.535157-8.535156h-8.53125c-4.714843 0-8.535156 3.820312-8.535156 8.535156 0 4.710938 3.820313 8.53125 8.535156 8.53125zm0 0"/><path d="m503.503906 102.398438c-4.714844 0-8.535156 3.820312-8.535156 8.535156v8.53125c0 4.714844 3.820312 8.535156 8.535156 8.535156 4.710938 0 8.53125-3.820312 8.53125-8.535156v-8.53125c0-4.714844-3.820312-8.535156-8.53125-8.535156zm0 0"/><path d="m40.636719 288.675781-30.171875 30.164063c-13.304688 13.339844-13.304688 34.929687 0 48.273437l30.171875 30.164063c2.144531 2.21875 5.316406 3.109375 8.300781 2.328125s5.3125-3.113281 6.09375-6.09375c.78125-2.984375-.109375-6.15625-2.328125-8.300781l-30.171875-30.171876c-6.664062-6.664062-6.664062-17.46875 0-24.132812l30.171875-30.164062c3.234375-3.351563 3.1875-8.671876-.101563-11.964844-3.292968-3.289063-8.613281-3.335938-11.964843-.101563zm0 0"/><path d="m64.769531 409.351562c-3.332031 3.332032-3.332031 8.734376 0 12.066407l6.035157 6.035156c3.347656 3.234375 8.667968 3.1875 11.960937-.105469 3.292969-3.292968 3.339844-8.613281.105469-11.960937l-6.035156-6.035157c-3.332032-3.332031-8.734376-3.332031-12.066407 0zm0 0"/><path d="m76.835938 276.597656 6.035156-6.03125c3.234375-3.347656 3.1875-8.671875-.105469-11.960937-3.292969-3.292969-8.613281-3.339844-11.960937-.105469l-6.035157 6.035156c-2.21875 2.140625-3.105469 5.3125-2.324219 8.296875.777344 2.984375 3.109376 5.3125 6.09375 6.09375 2.984376.78125 6.15625-.109375 8.296876-2.328125zm0 0"/></g><g transform="matrix(0.625 0 0 0.625 67.5 67.5)" id="L1_421"><path d="m58 1h-28c-2.757 0-5 2.243-5 5v19h-19c-2.757 0-5 2.243-5 5v28c0 2.757 2.243 5 5 5h28c2.757 0 5-2.243 5-5v-19h19c2.757 0 5-2.243 5-5v-28c0-2.757-2.243-5-5-5zm-21 57c0 1.654-1.346 3-3 3h-28c-1.654 0-3-1.346-3-3v-28c0-1.654 1.346-3 3-3h28c1.654 0 3 1.346 3 3zm-3-33h-4v-18c0-.551.448-1 1-1h26c.552 0 1 .449 1 1v26c0 .551-.448 1-1 1h-18v-4c0-2.757-2.243-5-5-5zm27 9c0 1.654-1.346 3-3 3h-19v-1h18c1.654 0 3-1.346 3-3v-26c0-1.654-1.346-3-3-3h-26c-1.654 0-3 1.346-3 3v18h-1v-19c0-1.654 1.346-3 3-3h28c1.654 0 3 1.346 3 3z"/><path d="m33 28h-26c-1.654 0-3 1.346-3 3v26c0 1.654 1.346 3 3 3h26c1.654 0 3-1.346 3-3v-26c0-1.654-1.346-3-3-3zm1 29c0 .551-.448 1-1 1h-26c-.552 0-1-.449-1-1v-26c0-.551.448-1 1-1h26c.552 0 1 .449 1 1z"/><path d="m12 40c2.206 0 4-1.794 4-4s-1.794-4-4-4-4 1.794-4 4 1.794 4 4 4zm0-6c1.103 0 2 .897 2 2s-.897 2-2 2-2-.897-2-2 .897-2 2-2z"/><path d="m28 48c-2.206 0-4 1.794-4 4s1.794 4 4 4 4-1.794 4-4-1.794-4-4-4zm0 6c-1.103 0-2-.897-2-2s.897-2 2-2 2 .897 2 2-.897 2-2 2z"/><path d="m28 32c-2.206 0-4 1.794-4 4s1.794 4 4 4 4-1.794 4-4-1.794-4-4-4zm0 6c-1.103 0-2-.897-2-2s.897-2 2-2 2 .897 2 2-.897 2-2 2z"/><path d="m12 48c-2.206 0-4 1.794-4 4s1.794 4 4 4 4-1.794 4-4-1.794-4-4-4zm0 6c-1.103 0-2-.897-2-2s.897-2 2-2 2 .897 2 2-.897 2-2 2z"/><path d="m20 40c-2.206 0-4 1.794-4 4s1.794 4 4 4 4-1.794 4-4-1.794-4-4-4zm0 6c-1.103 0-2-.897-2-2s.897-2 2-2 2 .897 2 2-.897 2-2 2z"/><path d="m36 8c-2.206 0-4 1.794-4 4s1.794 4 4 4 4-1.794 4-4-1.794-4-4-4zm0 6c-1.103 0-2-.897-2-2s.897-2 2-2 2 .897 2 2-.897 2-2 2z"/><path d="m52 32c2.206 0 4-1.794 4-4s-1.794-4-4-4-4 1.794-4 4 1.794 4 4 4zm0-6c1.103 0 2 .897 2 2s-.897 2-2 2-2-.897-2-2 .897-2 2-2z"/><path d="m44 24c2.206 0 4-1.794 4-4s-1.794-4-4-4-4 1.794-4 4 1.794 4 4 4zm0-6c1.103 0 2 .897 2 2s-.897 2-2 2-2-.897-2-2 .897-2 2-2z"/></g><g transform="matrix(0.1367184817790985 0 0 0.1367184817790985 315 140)" id="L1_422"><path d="M505.327,181.146c-0.361-1.242-0.951-2.424-1.778-3.466L474.401,141c-3.468-4.362-9.813-5.091-14.178-1.622    c-4.362,3.467-5.089,9.815-1.622,14.178l20.129,25.331l-73.006,23.944L266.165,101.435l0.218-76.953l126.187,45.98l26.963,33.931    c3.468,4.362,9.813,5.09,14.178,1.622c4.362-3.467,5.089-9.815,1.622-14.178l-28.734-36.159c-1.157-1.457-2.696-2.565-4.445-3.203    L259.788,0.6c-1.227-0.447-2.508-0.636-3.777-0.594c-1.269-0.041-2.551,0.147-3.778,0.594L109.856,52.475    c-1.748,0.637-3.287,1.745-4.445,3.203L8.472,177.671c-0.802,1.009-1.383,2.147-1.748,3.346c-0.443,1.178-0.677,2.44-0.653,3.732    l2.714,147.825c0.035,1.923,0.62,3.797,1.684,5.398l88.695,133.508c0.732,1.102,1.667,2.022,2.731,2.747    c1.117,0.87,2.409,1.522,3.826,1.863l147.906,35.629c0.777,0.188,1.57,0.28,2.363,0.28c0.793,0,1.586-0.094,2.363-0.28    l147.906-35.629c1.356-0.326,2.597-0.936,3.681-1.75c1.131-0.739,2.126-1.693,2.895-2.851l88.695-133.507    c1.065-1.601,1.649-3.474,1.684-5.398l2.714-147.825C505.953,183.512,505.74,182.29,505.327,181.146z M255.99,119.21    l136.044,98.836L340.078,377.98H171.912l-51.966-159.934L255.99,119.21z M119.44,70.462l126.196-45.979l0.209,76.943    L106.287,202.824l-72.998-23.945L119.44,70.462z M28.908,329.259l-2.401-130.764L100,222.145l53.308,164.066l-45.344,62.046    L28.908,329.259z M255.99,491.531l-130.917-31.537l44.666-61.833H342.25l44.659,61.833L255.99,491.531z M483.092,329.27    l-79.056,118.997l-45.344-62.046l53.308-164.056l73.494-23.657L483.092,329.27z"/><path d="M282.317,263.412c7.997-7.198,13.036-17.621,13.036-29.202c0-21.666-17.627-39.291-39.292-39.291    s-39.291,17.626-39.291,39.291c0,11.581,5.038,22.004,13.035,29.202c-7.997,7.198-13.035,17.621-13.035,29.202    c0,21.661,17.626,39.283,39.291,39.283s39.292-17.622,39.292-39.283C295.353,281.033,290.313,270.61,282.317,263.412z     M256.059,215.1c10.537,0,19.111,8.573,19.111,19.11s-8.574,19.111-19.111,19.111c-10.537,0-19.11-8.574-19.11-19.111    S245.522,215.1,256.059,215.1z M256.06,311.716c-10.537,0-19.11-8.569-19.11-19.102c0-10.537,8.573-19.11,19.11-19.11    c10.537,0,19.111,8.573,19.111,19.11C275.172,303.146,266.598,311.716,256.06,311.716z"/><path d="M248.845,444.345c-5.115,0-9.342,3.806-10.001,8.741c-1.246,0.975-4.965,2.721-10.877,2.721    c-5.105,0-8.573-1.303-10.228-2.286c3.465-5.971,19.617-18.601,36.099-27.996c3.978-2.265,5.933-6.925,4.762-11.352    c-1.172-4.426-5.176-7.507-9.754-7.507h-41.754c-5.572,0-10.09,4.519-10.09,10.09c0,5.572,4.518,10.091,10.09,10.091h8.923    c-13.094,10.572-19.013,19.228-19.013,27.587c0,12.288,13.312,21.553,30.967,21.553s30.968-9.266,30.968-21.553    C258.935,448.864,254.417,444.345,248.845,444.345z"/><path d="M392.206,101.089c-2.357-4.88-6.489-9.587-11.647-13.264c-12.769-9.071-27.298-9.047-33.794,0.054    c-3.237,4.536-2.185,10.837,2.352,14.074c3.945,2.816,9.226,2.384,12.664-0.758c1.371,0.14,4.053,0.923,7.079,3.073    c2.065,1.471,3.473,2.998,4.346,4.216c-6.457,1.774-21.634,2.215-35.434,0.826c-4.555-0.46-8.849,2.203-10.46,6.487    c-1.612,4.284-0.138,9.117,3.592,11.773l28.374,20.202c1.775,1.263,3.819,1.871,5.843,1.871c3.154,0,6.26-1.474,8.229-4.239    c3.232-4.54,2.171-10.84-2.368-14.072l-2.347-1.671c11.821-1.258,19.061-4.421,22.931-9.857    C395.234,114.661,395.467,107.841,392.206,101.089z"/><path d="M107.494,279.442l-3.441-9.535c-0.001-0.003-0.002-0.006-0.003-0.009c-4.609-12.735-18.721-19.359-31.463-14.764    l-16.029,5.789c-6.177,2.228-11.116,6.728-13.906,12.674c-2.789,5.941-3.098,12.613-0.87,18.789l3.441,9.539    c2.229,6.172,6.729,11.108,12.673,13.897c3.32,1.558,6.867,2.342,10.425,2.342c2.817,0.001,5.643-0.49,8.368-1.477l16.028-5.79    c6.176-2.227,11.116-6.726,13.906-12.671C109.415,292.282,109.722,285.611,107.494,279.442z M88.357,289.647    c-0.289,0.615-0.995,1.727-2.489,2.265l-16.04,5.794c-1.486,0.538-2.741,0.135-3.357-0.153c-0.615-0.29-1.728-0.996-2.264-2.48    l-3.439-9.534c-0.539-1.493-0.134-2.752,0.154-3.367c0.289-0.615,0.995-1.726,2.489-2.265l16.029-5.789    c0.49-0.178,0.992-0.261,1.486-0.261c1.801,0,3.498,1.116,4.147,2.908l3.44,9.531C89.049,287.78,88.645,289.034,88.357,289.647z"/><path d="M338.812,436.227c-2.816-4.808-8.999-6.428-13.807-3.607l-26.575,15.564v-31.315c0-5.572-4.519-10.09-10.091-10.09    c-5.572,0-10.09,4.518-10.09,10.09v48.918c0,3.616,1.935,6.956,5.073,8.755c1.554,0.891,3.286,1.336,5.018,1.336    c1.763,0,3.525-0.461,5.1-1.383l41.765-24.459C340.014,447.218,341.628,441.036,338.812,436.227z"/><path d="M124.88,327.885c-1.891-5.241-7.674-7.955-12.917-6.065l-43.096,15.56c-3.401,1.228-5.886,4.182-6.512,7.744    c-0.626,3.562,0.702,7.186,3.482,9.501l34.832,29c1.886,1.57,4.175,2.335,6.451,2.335c2.892,0.001,5.764-1.237,7.759-3.634    c3.566-4.282,2.985-10.645-1.298-14.211l-21.3-17.733l26.535-9.58C124.058,338.91,126.773,333.127,124.88,327.885z"/><path d="M188.966,115.715L173.62,96.921c-0.012-0.015-0.022-0.032-0.035-0.047c-0.012-0.015-0.027-0.028-0.039-0.043    l-15.337-18.785c-3.525-4.318-9.884-4.958-14.197-1.433c-4.317,3.525-4.957,9.882-1.433,14.197l8.994,11.016l-16.519,13.491    l-9.005-11.019c-3.527-4.315-9.883-4.953-14.198-1.428c-4.315,3.527-4.954,9.884-1.428,14.198l15.388,18.829    c1.995,2.441,4.895,3.705,7.819,3.705c2.244,0,4.503-0.745,6.376-2.275l24.33-19.87l8.997,11.019    c1.996,2.444,4.897,3.71,7.823,3.71c2.244,0,4.501-0.744,6.374-2.273C191.846,126.388,192.489,120.032,188.966,115.715z"/><path d="M451.639,301.436c-5.223-1.968-11.037,0.674-12.998,5.888l-5.733,15.23l-17.88-32.329    c-2.697-4.877-8.835-6.641-13.714-3.947c-4.877,2.697-6.644,8.837-3.946,13.714l28.455,51.45c1.786,3.228,5.177,5.207,8.827,5.207    c0.244,0,0.488-0.009,0.736-0.026c3.924-0.286,7.326-2.826,8.711-6.508l13.431-35.679    C459.49,309.219,456.853,303.398,451.639,301.436z"/><path d="M446.709,112.005c-12.985,0-13.007,20.181,0,20.181C459.695,132.186,459.716,112.005,446.709,112.005z"/></g><g transform="matrix(0.09765072166919708 0 0 0.09765072166919708 62.5 237.5)" id="L1_423"><path d="m468.455 224.481h-208.42c-21.816 0-39.564 17.749-39.564 39.564v161.065l-7.693 4.667c-2.965 1.799-6.138 3.067-9.396 3.842v-204.654l168.218-102.032c.751 2.747 1.153 5.604 1.153 8.505v64.475c0 4.142 3.358 7.5 7.5 7.5s7.5-3.358 7.5-7.5v-64.475c0-16.494-8.752-32.067-22.841-40.644l-144.291-87.828c-15.26-9.288-34.219-9.289-49.479 0l-144.29 87.829c-14.089 8.576-22.842 24.15-22.842 40.644v178.962c0 16.524 8.777 32.113 22.905 40.683l144.291 87.518c7.61 4.616 16.143 6.924 24.675 6.924 8.501 0 17-2.294 24.589-6.876v29.815c0 21.816 17.749 39.564 39.564 39.564h208.419c21.816 0 39.564-17.749 39.564-39.564v-208.42c.002-21.816-17.747-39.564-39.562-39.564zm-433.76 117.778c-9.675-5.868-15.685-16.542-15.685-27.857v-178.963c0-2.901.401-5.758 1.153-8.505l19.555 11.861c1.216.737 2.558 1.088 3.882 1.088 2.535 0 5.009-1.286 6.42-3.611 2.148-3.542 1.019-8.154-2.523-10.302l-20.163-12.23c2.107-2.367 4.557-4.451 7.317-6.131l144.29-87.829c10.449-6.36 23.432-6.36 33.881 0l144.291 87.829c2.76 1.68 5.209 3.763 7.317 6.131l-168.549 102.23-121.202-73.514c-3.542-2.148-8.155-1.018-10.302 2.523-2.148 3.542-1.019 8.154 2.523 10.302l121.481 73.683v204.653c-3.258-.775-6.431-2.043-9.396-3.842zm458.324 130.206c0 13.545-11.02 24.564-24.564 24.564h-208.42c-13.545 0-24.564-11.02-24.564-24.564v-208.42c0-13.545 11.02-24.564 24.564-24.564h208.419c13.545 0 24.564 11.02 24.564 24.564v208.42z"/><path d="m103.462 250.612c-6.466-3.733-13.309-4.063-18.773-.909-6.167 3.561-9.705 11.007-9.705 20.428 0 15.309 9.215 32.621 20.978 39.412 3.523 2.034 7.159 3.058 10.623 3.058 2.892 0 5.664-.714 8.15-2.149 6.168-3.561 9.705-11.007 9.705-20.428 0-15.308-9.214-32.62-20.978-39.412zm3.773 46.85c-.668.384-2.149.028-3.773-.909-7.18-4.146-13.478-16.492-13.478-26.422 0-4.876 1.442-6.998 2.205-7.438.179-.103.416-.153.698-.153.773 0 1.886.375 3.075 1.062 7.18 4.146 13.478 16.493 13.478 26.422 0 4.876-1.442 6.997-2.205 7.438z"/><path d="m196.073 135.559c19.011 0 33.903-10.61 33.903-24.154s-14.892-24.154-33.903-24.154-33.902 10.61-33.902 24.154c-.001 13.544 14.891 24.154 33.902 24.154zm0-33.308c11.539 0 18.903 5.421 18.903 9.154s-7.364 9.154-18.903 9.154-18.902-5.422-18.902-9.154 7.363-9.154 18.902-9.154z"/><path d="m278.087 135.559c19.011 0 33.902-10.61 33.902-24.154s-14.892-24.154-33.902-24.154-33.902 10.61-33.902 24.154 14.892 24.154 33.902 24.154zm0-33.308c11.539 0 18.902 5.421 18.902 9.154s-7.364 9.154-18.902 9.154-18.902-5.422-18.902-9.154 7.364-9.154 18.902-9.154z"/><path d="m114.059 135.559c19.011 0 33.902-10.61 33.902-24.154s-14.892-24.154-33.902-24.154-33.902 10.61-33.902 24.154c-.001 13.544 14.891 24.154 33.902 24.154zm0-33.308c11.539 0 18.902 5.421 18.902 9.154s-7.364 9.154-18.902 9.154-18.902-5.422-18.902-9.154 7.363-9.154 18.902-9.154z"/><path d="m364.245 336.706c-17.396 0-31.548 14.152-31.548 31.548s14.152 31.549 31.548 31.549 31.548-14.153 31.548-31.549-14.152-31.548-31.548-31.548zm0 48.098c-9.125 0-16.548-7.424-16.548-16.549s7.423-16.548 16.548-16.548 16.548 7.423 16.548 16.548-7.423 16.549-16.548 16.549z"/><path d="m292.1 264.561c-17.396 0-31.548 14.152-31.548 31.548s14.152 31.548 31.548 31.548 31.548-14.152 31.548-31.548-14.152-31.548-31.548-31.548zm0 48.097c-9.125 0-16.548-7.423-16.548-16.548s7.423-16.548 16.548-16.548 16.548 7.423 16.548 16.548-7.423 16.548-16.548 16.548z"/><path d="m436.39 408.852c-17.396 0-31.548 14.152-31.548 31.548s14.152 31.548 31.548 31.548 31.549-14.152 31.549-31.548-14.153-31.548-31.549-31.548zm0 48.097c-9.125 0-16.548-7.423-16.548-16.548s7.423-16.548 16.548-16.548 16.549 7.423 16.549 16.548-7.424 16.548-16.549 16.548z"/></g><g transform="matrix(1.7876296043395996 0 0 1.7876296043395996 217.5 217.5)" id="L1_424"><path d="M50.155,23.082L44.828,7.783c-0.476-1.365-1.767-2.282-3.211-2.282c-0.381,0-0.757,0.063-1.118,0.189l-15.3,5.327   c-0.857,0.299-1.547,0.914-1.942,1.731c-0.396,0.818-0.448,1.74-0.149,2.598l5.327,15.3c0.476,1.364,1.766,2.282,3.21,2.282   c0.381,0,0.758-0.064,1.119-0.19l15.298-5.327c0.858-0.298,1.549-0.913,1.943-1.73C50.4,24.863,50.454,23.94,50.155,23.082z    M30.286,17.718c-1.043,0.363-2.183-0.188-2.546-1.231c-0.363-1.043,0.188-2.183,1.231-2.547c1.043-0.363,2.183,0.188,2.546,1.231   C31.88,16.214,31.329,17.354,30.286,17.718z M33.903,28.106c-1.043,0.363-2.183-0.188-2.546-1.231s0.188-2.183,1.231-2.546   s2.183,0.188,2.546,1.231S34.946,27.743,33.903,28.106z M40.674,14.1c-1.043,0.363-2.183-0.188-2.546-1.231   c-0.363-1.043,0.188-2.183,1.231-2.546c1.043-0.363,2.183,0.188,2.546,1.231S41.717,13.737,40.674,14.1z M44.292,24.489   c-1.043,0.363-2.183-0.188-2.547-1.231c-0.363-1.043,0.188-2.183,1.231-2.546c1.043-0.363,2.183,0.188,2.546,1.231   C45.886,22.985,45.335,24.125,44.292,24.489z"/><path d="M19.6,21.845H3.4c-1.875,0-3.4,1.525-3.4,3.4v16.199c0,1.875,1.525,3.4,3.4,3.4H19.6c1.875,0,3.4-1.525,3.4-3.4V25.246   C23,23.371,21.475,21.845,19.6,21.845z M6,40.845c-1.105,0-2-0.895-2-2c0-1.105,0.895-2,2-2s2,0.895,2,2   C8,39.95,7.105,40.845,6,40.845z M6,29.845c-1.105,0-2-0.895-2-2c0-1.105,0.895-2,2-2s2,0.895,2,2C8,28.95,7.105,29.845,6,29.845z    M11.5,35.679c-1.105,0-2-0.895-2-2s0.895-2,2-2s2,0.895,2,2S12.605,35.679,11.5,35.679z M17,40.845c-1.105,0-2-0.895-2-2   c0-1.105,0.895-2,2-2s2,0.895,2,2C19,39.95,18.105,40.845,17,40.845z M17,29.845c-1.105,0-2-0.895-2-2c0-1.105,0.895-2,2-2   s2,0.895,2,2C19,28.95,18.105,29.845,17,29.845z"/></g><g transform="matrix(0.13206042349338531 -0.035385485738515854 0.035385485738515854 0.13206042349338531 132.15159606933594 150.2489013671875)" id="L1_425"><path d="M480.031,133.191c-2.159-6.522-6.615-12.001-12.555-15.431L335.142,41.359c-3.589-2.07-8.176-0.844-10.246,2.745    c-2.071,3.587-0.842,8.175,2.745,10.246c142.381,82.202,134.628,76.846,137.107,81.21c-2.783,4.914,9.093-3.185-202.274,118.847    c-3.932,2.27-9.017,2.272-12.95-0.001C39.929,133.397,49.92,140.273,47.251,135.559c2.482-4.369-11.345,4.498,202.275-118.834    c3.992-2.307,8.956-2.307,12.95,0l43.617,25.183c3.585,2.068,8.176,0.842,10.246-2.745c2.071-3.587,0.842-8.175-2.745-10.246    L269.976,3.735c-8.622-4.979-19.333-4.979-27.952,0L44.523,117.76c-8.913,5.145-13.976,14.555-13.976,24.208v156.389    c0,4.143,3.357,7.501,7.501,7.501c4.143,0,7.501-3.357,7.501-7.501V153.963l196.473,113.433c0.521,0.301,1.052,0.584,1.59,0.85    c0.164,0.081,0.334,0.15,0.499,0.228c0.377,0.177,0.753,0.355,1.137,0.515c0.209,0.087,0.422,0.161,0.633,0.242    c0.347,0.135,0.693,0.272,1.045,0.393c0.231,0.079,0.465,0.145,0.698,0.218c0.292,0.092,0.581,0.192,0.875,0.274v224.555    L52.025,381.24c-3.994-2.308-6.477-6.607-6.477-11.219v-46.329c0-4.143-3.357-7.501-7.501-7.501c-4.143,0-7.501,3.357-7.501,7.501    v46.329c0,9.953,5.354,19.23,13.976,24.209l197.498,114.024c4.24,2.45,9.074,3.745,13.978,3.745c4.902,0,9.736-1.295,13.977-3.744    l197.5-114.026c8.62-4.978,13.975-14.254,13.975-24.208V141.969C481.451,136.821,479.894,132.778,480.031,133.191z     M466.451,370.022c-0.001,4.612-2.482,8.911-6.476,11.218L263.5,494.672V270.116c6.815-1.899,2.885-0.646,202.951-116.154V370.022    z"/><path d="M255.919,112.602c-18.833,0-33.585,11.106-33.585,25.285c0,14.179,14.752,25.285,33.585,25.285    c18.833,0,33.585-11.106,33.585-25.285C289.503,123.707,274.751,112.602,255.919,112.602z M255.919,148.17    c-10.637,0-18.584-5.429-18.584-10.284c0-4.854,7.947-10.284,18.584-10.284c10.637,0,18.584,5.428,18.584,10.284    C274.502,142.741,266.556,148.17,255.919,148.17z"/><path d="M126.839,248.641c-3.504-24.748-35.353-37.492-51.065-20.072c-9.833,10.91-7.711,28.909,4.73,40.124l-0.001-0.001    c12.457,11.23,30.578,11.452,40.397,0.558C125.837,263.775,127.946,256.455,126.839,248.641z M90.549,257.551    c-6.192-5.581-7.855-14.253-3.633-18.938c1.863-2.067,4.618-3.073,7.648-3.073c3.833,0,8.105,1.612,11.564,4.729    c3.234,2.915,5.314,6.635,5.857,10.473C113.678,262.678,99.983,266.059,90.549,257.551z"/><path d="M174.07,325.199c-1.034-7.317-4.823-14.247-10.667-19.515c-5.844-5.267-13.128-8.318-20.513-8.593    c-7.889-0.286-14.949,2.562-19.885,8.037c-10.134,11.241-7.437,29.157,4.729,40.124    C148.119,363.623,177.675,350.663,174.07,325.199z M137.78,334.11c-6.303-5.68-7.838-14.271-3.631-18.937    c2.056-2.281,5.105-3.212,8.187-3.09c3.874,0.144,7.79,1.828,11.024,4.744c3.234,2.915,5.314,6.636,5.859,10.475    C160.897,339.159,147.311,342.701,137.78,334.11z"/><path d="M221.302,401.756c-3.51-24.808-35.386-37.458-51.064-20.071c-10.133,11.24-7.441,29.153,4.73,40.124    c5.891,5.309,13.548,8.613,21.61,8.613c7.443-0.001,14.081-2.838,18.786-8.058C220.3,416.89,222.408,409.572,221.302,401.756z     M204.221,412.321c-4.237,4.703-12.956,3.983-19.21-1.653c0-0.001,0-0.001,0-0.001c-9.337-8.416-7.561-22.011,4.017-22.011    c8.097,0,16.253,6.952,17.42,15.202C206.923,407.199,206.132,410.204,204.221,412.321z"/><path d="M436.208,228.569c-9.834-10.905-27.955-10.654-40.397,0.559c-5.844,5.267-9.632,12.197-10.668,19.514    c-1.106,7.815,1.003,15.135,5.938,20.611c4.829,5.353,11.652,8.02,18.822,8.02c7.436,0,15.243-2.868,21.576-8.578    C443.92,257.48,446.043,239.481,436.208,228.569z M421.435,257.55c0,0.001,0,0.001-0.001,0.001    c-6.19,5.582-14.987,6.336-19.21,1.655c-1.909-2.118-2.7-5.123-2.226-8.464c0.543-3.838,2.623-7.558,5.857-10.474    c3.459-3.117,7.731-4.729,11.564-4.729c3.027,0,5.782,1.007,7.647,3.072C429.289,243.298,427.627,251.97,421.435,257.55z"/><path d="M341.747,283.64c-9.831-10.907-27.954-10.661-40.398,0.556c-12.172,10.971-14.859,28.888-4.729,40.122    c15.836,17.567,47.595,4.454,51.065-20.07C348.79,296.433,346.682,289.113,341.747,283.64z M326.971,312.62    c-6.286,5.668-14.991,6.333-19.212,1.653c-4.211-4.671-2.658-13.266,3.632-18.936c6.191-5.578,14.988-6.339,19.212-1.653    C334.808,298.347,333.277,306.937,326.971,312.62z"/><path d="M341.746,381.687c-15.669-17.382-47.553-4.744-51.064,20.07c-3.542,25.015,25.586,38.755,46.334,20.054    c5.843-5.267,9.633-12.197,10.669-19.515C348.79,394.48,346.681,387.16,341.746,381.687z M326.973,410.666    c-6.362,5.734-15.034,6.287-19.211,1.653c-4.206-4.664-2.669-13.256,3.63-18.936c6.197-5.582,14.994-6.336,19.213-1.653    C334.811,396.397,333.273,404.987,326.973,410.666z"/><path d="M395.811,327.172c-12.44,11.216-14.562,29.215-4.728,40.123c4.705,5.22,11.343,8.058,18.786,8.058    c0.364,0,0.731-0.007,1.1-0.021c15.267-0.565,29.035-12.966,31.18-28.106C445.743,321.851,416.2,308.801,395.811,327.172z     M421.435,355.596c-6.419,5.786-15.073,6.241-19.211,1.655c-6.925-7.682,2.255-23.666,15.194-23.666    C429.049,333.586,430.734,347.218,421.435,355.596z"/></g></defs><g fi:class="KUsePattern"><pattern id="pattern_L1_416" width="350" height="350" patternUnits="userSpaceOnUse"><use xlink:href="#L1_416" x="-350" y="-350"/><use xlink:href="#L1_416" x="0" y="-350"/><use xlink:href="#L1_416" x="350" y="-350"/><use xlink:href="#L1_416" x="-350" y="0"/><use xlink:href="#L1_416" x="0" y="0"/><use xlink:href="#L1_416" x="350" y="0"/><use xlink:href="#L1_416" x="-350" y="350"/><use xlink:href="#L1_416" x="0" y="350"/><use xlink:href="#L1_416" x="350" y="350"/></pattern><rect x="0" y="0" width="100%" height="100%" fill="url(#pattern_L1_416)"/></g><g fi:class="KUsePattern"><pattern id="pattern_L1_417" width="350" height="350" patternUnits="userSpaceOnUse"><use xlink:href="#L1_417" x="-350" y="-350"/><use xlink:href="#L1_417" x="0" y="-350"/><use xlink:href="#L1_417" x="350" y="-350"/><use xlink:href="#L1_417" x="-350" y="0"/><use xlink:href="#L1_417" x="0" y="0"/><use xlink:href="#L1_417" x="350" y="0"/><use xlink:href="#L1_417" x="-350" y="350"/><use xlink:href="#L1_417" x="0" y="350"/><use xlink:href="#L1_417" x="350" y="350"/></pattern><rect x="0" y="0" width="100%" height="100%" fill="url(#pattern_L1_417)"/></g><g fi:class="KUsePattern"><pattern id="pattern_L1_418" width="350" height="350" patternUnits="userSpaceOnUse"><use xlink:href="#L1_418" x="-350" y="-350"/><use xlink:href="#L1_418" x="0" y="-350"/><use xlink:href="#L1_418" x="350" y="-350"/><use xlink:href="#L1_418" x="-350" y="0"/><use xlink:href="#L1_418" x="0" y="0"/><use xlink:href="#L1_418" x="350" y="0"/><use xlink:href="#L1_418" x="-350" y="350"/><use xlink:href="#L1_418" x="0" y="350"/><use xlink:href="#L1_418" x="350" y="350"/></pattern><rect x="0" y="0" width="100%" height="100%" fill="url(#pattern_L1_418)"/></g><g fi:class="KUsePattern"><pattern id="pattern_L1_419" width="350" height="350" patternUnits="userSpaceOnUse"><use xlink:href="#L1_419" x="-350" y="-350"/><use xlink:href="#L1_419" x="0" y="-350"/><use xlink:href="#L1_419" x="350" y="-350"/><use xlink:href="#L1_419" x="-350" y="0"/><use xlink:href="#L1_419" x="0" y="0"/><use xlink:href="#L1_419" x="350" y="0"/><use xlink:href="#L1_419" x="-350" y="350"/><use xlink:href="#L1_419" x="0" y="350"/><use xlink:href="#L1_419" x="350" y="350"/></pattern><rect x="0" y="0" width="100%" height="100%" fill="url(#pattern_L1_419)"/></g><g fi:class="KUsePattern"><pattern id="pattern_L1_420" width="350" height="350" patternUnits="userSpaceOnUse"><use xlink:href="#L1_420" x="-350" y="-350"/><use xlink:href="#L1_420" x="0" y="-350"/><use xlink:href="#L1_420" x="350" y="-350"/><use xlink:href="#L1_420" x="-350" y="0"/><use xlink:href="#L1_420" x="0" y="0"/><use xlink:href="#L1_420" x="350" y="0"/><use xlink:href="#L1_420" x="-350" y="350"/><use xlink:href="#L1_420" x="0" y="350"/><use xlink:href="#L1_420" x="350" y="350"/></pattern><rect x="0" y="0" width="100%" height="100%" fill="url(#pattern_L1_420)"/></g><g fi:class="KUsePattern"><pattern id="pattern_L1_421" width="350" height="350" patternUnits="userSpaceOnUse"><use xlink:href="#L1_421" x="-350" y="-350"/><use xlink:href="#L1_421" x="0" y="-350"/><use xlink:href="#L1_421" x="350" y="-350"/><use xlink:href="#L1_421" x="-350" y="0"/><use xlink:href="#L1_421" x="0" y="0"/><use xlink:href="#L1_421" x="350" y="0"/><use xlink:href="#L1_421" x="-350" y="350"/><use xlink:href="#L1_421" x="0" y="350"/><use xlink:href="#L1_421" x="350" y="350"/></pattern><rect x="0" y="0" width="100%" height="100%" fill="url(#pattern_L1_421)"/></g><g fi:class="KUsePattern"><pattern id="pattern_L1_422" width="350" height="350" patternUnits="userSpaceOnUse"><use xlink:href="#L1_422" x="-350" y="-350"/><use xlink:href="#L1_422" x="0" y="-350"/><use xlink:href="#L1_422" x="350" y="-350"/><use xlink:href="#L1_422" x="-350" y="0"/><use xlink:href="#L1_422" x="0" y="0"/><use xlink:href="#L1_422" x="350" y="0"/><use xlink:href="#L1_422" x="-350" y="350"/><use xlink:href="#L1_422" x="0" y="350"/><use xlink:href="#L1_422" x="350" y="350"/></pattern><rect x="0" y="0" width="100%" height="100%" fill="url(#pattern_L1_422)"/></g><g fi:class="KUsePattern"><pattern id="pattern_L1_423" width="350" height="350" patternUnits="userSpaceOnUse"><use xlink:href="#L1_423" x="-350" y="-350"/><use xlink:href="#L1_423" x="0" y="-350"/><use xlink:href="#L1_423" x="350" y="-350"/><use xlink:href="#L1_423" x="-350" y="0"/><use xlink:href="#L1_423" x="0" y="0"/><use xlink:href="#L1_423" x="350" y="0"/><use xlink:href="#L1_423" x="-350" y="350"/><use xlink:href="#L1_423" x="0" y="350"/><use xlink:href="#L1_423" x="350" y="350"/></pattern><rect x="0" y="0" width="100%" height="100%" fill="url(#pattern_L1_423)"/></g><g fi:class="KUsePattern"><pattern id="pattern_L1_424" width="350" height="350" patternUnits="userSpaceOnUse"><use xlink:href="#L1_424" x="-350" y="-350"/><use xlink:href="#L1_424" x="0" y="-350"/><use xlink:href="#L1_424" x="350" y="-350"/><use xlink:href="#L1_424" x="-350" y="0"/><use xlink:href="#L1_424" x="0" y="0"/><use xlink:href="#L1_424" x="350" y="0"/><use xlink:href="#L1_424" x="-350" y="350"/><use xlink:href="#L1_424" x="0" y="350"/><use xlink:href="#L1_424" x="350" y="350"/></pattern><rect x="0" y="0" width="100%" height="100%" fill="url(#pattern_L1_424)"/></g><g fi:class="KUsePattern"><pattern id="pattern_L1_425" width="350" height="350" patternUnits="userSpaceOnUse"><use xlink:href="#L1_425" x="-350" y="-350"/><use xlink:href="#L1_425" x="0" y="-350"/><use xlink:href="#L1_425" x="350" y="-350"/><use xlink:href="#L1_425" x="-350" y="0"/><use xlink:href="#L1_425" x="0" y="0"/><use xlink:href="#L1_425" x="350" y="0"/><use xlink:href="#L1_425" x="-350" y="350"/><use xlink:href="#L1_425" x="0" y="350"/><use xlink:href="#L1_425" x="350" y="350"/></pattern><rect x="0" y="0" width="100%" height="100%" fill="url(#pattern_L1_425)"/></g></svg>